HIERARCHY
ROOT joint_Root
{
	OFFSET 0.0 0.0 0.0
	CHANNELS 6 Xposition Yposition Zposition Zrotation Xrotation Yrotation 
	JOINT Hips
	{
		OFFSET 4.5925 91.4895 -427.239
		CHANNELS 6 Xposition Yposition Zposition Zrotation Xrotation Yrotation 
		JOINT Spine
		{
			OFFSET 15.7357 0.0 0.0
			CHANNELS 6 Xposition Yposition Zposition Zrotation Xrotation Yrotation 
			JOINT Chest
			{
				OFFSET 8.98455 -0.406207 0.0
				CHANNELS 6 Xposition Yposition Zposition Zrotation Xrotation Yrotation 
				JOINT Neck
				{
					OFFSET 16.3773 0.0 0.0
					CHANNELS 6 Xposition Yposition Zposition Zrotation Xrotation Yrotation 
					JOINT Head
					{
						OFFSET 6.45672 0.0 0.0
						CHANNELS 6 Xposition Yposition Zposition Zrotation Xrotation Yrotation 
						End Site
						{
							OFFSET 0.0 0.0 0.0
						}
					}
				}
				JOINT Shoulder_L
				{
					OFFSET 12.9942 -0.242716 4.98039
					CHANNELS 6 Xposition Yposition Zposition Zrotation Xrotation Yrotation 
					JOINT UpperArm_L
					{
						OFFSET 5.34809 0.0 0.0
						CHANNELS 6 Xposition Yposition Zposition Zrotation Xrotation Yrotation 
						JOINT LowerArm_L
						{
							OFFSET 24.3286 1.87007e-05 0.0
							CHANNELS 6 Xposition Yposition Zposition Zrotation Xrotation Yrotation 
							JOINT Hand_L
							{
								OFFSET 22.2916 0.0 0.0
								CHANNELS 6 Xposition Yposition Zposition Zrotation Xrotation Yrotation 
								End Site
								{
									OFFSET 0.0 0.0 0.0
								}
							}
						}
					}
				}
				JOINT Shoulder_R
				{
					OFFSET 12.9945 -0.242716 -4.98039
					CHANNELS 6 Xposition Yposition Zposition Zrotation Xrotation Yrotation 
					JOINT UpperArm_R
					{
						OFFSET -5.34813 0.0 0.0
						CHANNELS 6 Xposition Yposition Zposition Zrotation Xrotation Yrotation 
						JOINT LowerArm_R
						{
							OFFSET -24.3289 0.000322201 0.0
							CHANNELS 6 Xposition Yposition Zposition Zrotation Xrotation Yrotation 
							JOINT Hand_R
							{
								OFFSET -22.2915 -0.000108084 0.0
								CHANNELS 6 Xposition Yposition Zposition Zrotation Xrotation Yrotation 
								End Site
								{
									OFFSET 0.0 0.0 0.0
								}
							}
						}
					}
				}
			}
		}
		JOINT UpperLeg_L
		{
			OFFSET -2.19248 -6.46944 0.0
			CHANNELS 6 Xposition Yposition Zposition Zrotation Xrotation Yrotation 
			JOINT LowerLeg_L
			{
				OFFSET 39.0811 0.0 -1.23785e-05
				CHANNELS 6 Xposition Yposition Zposition Zrotation Xrotation Yrotation 
				JOINT Foot_L
				{
					OFFSET 40.9854 0.0 -1.26872e-05
					CHANNELS 6 Xposition Yposition Zposition Zrotation Xrotation Yrotation 
					JOINT Toes_L
					{
						OFFSET 11.7543 0.0 0.0
						CHANNELS 6 Xposition Yposition Zposition Zrotation Xrotation Yrotation 
						End Site
						{
							OFFSET 0.0 0.0 0.0
						}
					}
				}
			}
		}
		JOINT UpperLeg_R
		{
			OFFSET -2.19251 6.46944 0.0
			CHANNELS 6 Xposition Yposition Zposition Zrotation Xrotation Yrotation 
			JOINT LowerLeg_R
			{
				OFFSET -39.0811 -0.00228153 -0.0401928
				CHANNELS 6 Xposition Yposition Zposition Zrotation Xrotation Yrotation 
				JOINT Foot_R
				{
					OFFSET -40.9854 0.0 0.0
					CHANNELS 6 Xposition Yposition Zposition Zrotation Xrotation Yrotation 
					JOINT Toes_R
					{
						OFFSET -11.7543 0.0 0.0
						CHANNELS 6 Xposition Yposition Zposition Zrotation Xrotation Yrotation 
						End Site
						{
							OFFSET 0.0 0.0 0.0
						}
					}
				}
			}
		}
	}
}
MOTION
Frames:	5
Frame Time:	0.0333333
0.000000 0.000000 0.000000 0.000000 0.000000 -0.000000 2.631100 90.719500 -1.020040 90.241000 -1.825250 14.836100 15.735700 0.000005 -0.000001 90.011500 83.189800 -90.941500 8.984550 -0.406207 -0.000000 5.855120 0.018213 -1.858920 16.377300 -0.000001 -0.000001 36.404000 -5.780280 2.719740 6.456720 -0.000001 -0.000000 19.223800 -9.562310 -4.363330 12.994200 -0.242716 4.980390 -86.468000 -7.385990 -64.352700 5.348090 -0.000007 -0.000001 -61.462900 -62.947500 -59.424800 24.328600 0.000019 0.000005 5.834130 11.087700 -27.982200 22.291600 -0.000001 0.000005 21.875100 4.855430 10.255300 12.994500 -0.242716 -4.980390 91.918400 -5.584890 -71.007900 -5.348130 -0.000001 -0.000004 -36.447100 -56.123300 -42.230700 -24.328900 0.000322 -0.000009 -0.655673 -1.396650 -25.115100 -22.291500 -0.000108 -0.000004 21.122100 5.240040 1.695190 -2.192480 -6.469440 -0.000000 -177.445000 -10.871900 3.604660 39.081100 -0.000007 -0.000012 -0.053415 0.088302 31.170700 40.985400 -0.000006 -0.000013 2.505960 4.095580 -70.213600 11.754300 -0.000000 0.000003 -0.000077 -0.000826 -16.609400 -2.192510 6.469440 -0.000001 170.173000 17.451900 -174.974000 -39.081100 -0.002282 -0.040193 -0.170877 0.294268 30.621400 -40.985400 0.000008 0.000006 -0.157660 10.228700 -69.443000 -11.754300 -0.000006 -0.000006 -0.005062 -0.062061 -19.098300
0.000000 0.000000 0.000000 0.000000 0.000000 -0.000000 2.732480 90.694700 -0.989041 90.343200 -1.522960 14.936700 15.735700 0.000005 -0.000001 89.825900 83.275400 -90.792900 8.984550 -0.406207 -0.000000 5.683570 -0.023213 -1.930670 16.377300 -0.000001 -0.000001 36.422400 -5.846870 2.888950 6.456720 -0.000001 -0.000000 19.263100 -9.685680 -4.369590 12.994200 -0.242716 4.980390 -86.465400 -7.427130 -64.459500 5.348090 -0.000007 -0.000001 -62.137800 -61.648000 -61.212600 24.328600 0.000019 0.000005 5.566170 10.700500 -27.693300 22.291600 -0.000001 0.000005 22.297400 4.830670 10.733500 12.994500 -0.242716 -4.980390 91.937300 -5.647720 -71.031300 -5.348130 -0.000001 -0.000004 -37.726100 -56.320400 -44.168100 -24.328900 0.000322 -0.000009 -0.531475 -1.151100 -24.741500 -22.291500 -0.000108 -0.000004 20.495500 5.195980 2.819870 -2.192480 -6.469440 -0.000000 -177.646000 -10.753600 3.674990 39.081100 -0.000007 -0.000012 -0.048146 0.079424 31.224400 40.985400 -0.000006 -0.000013 2.615490 4.169320 -70.260900 11.754300 -0.000000 0.000003 -0.000074 -0.000794 -16.608200 -2.192510 6.469440 -0.000001 169.975000 17.351300 -174.870000 -39.081100 -0.002282 -0.040193 -0.176830 0.302846 30.744000 -40.985400 0.000008 0.000006 -0.327641 9.919060 -69.530800 -11.754300 -0.000006 -0.000006 -0.005050 -0.061951 -19.093800
0.000000 0.000000 0.000000 0.000000 0.000000 -0.000000 2.832060 90.663300 -0.932343 90.412900 -1.280030 15.140000 15.735700 0.000005 -0.000001 89.765400 83.356100 -90.757000 8.984550 -0.406207 -0.000000 5.522040 -0.034881 -1.979330 16.377300 -0.000001 -0.000001 36.319700 -5.921480 2.916720 6.456720 -0.000001 -0.000000 19.348600 -9.657740 -4.348100 12.994200 -0.242716 4.980390 -86.462400 -7.502030 -64.662300 5.348090 -0.000007 -0.000001 -63.168900 -59.957400 -63.950200 24.328600 0.000019 0.000005 5.203540 9.980930 -27.719000 22.291600 -0.000001 0.000005 21.978900 4.845300 10.451900 12.994500 -0.242716 -4.980390 91.969900 -5.767810 -71.106700 -5.348130 -0.000001 -0.000004 -39.024200 -56.046600 -46.599300 -24.328900 0.000322 -0.000009 -0.654089 -1.404120 -24.944900 -22.291500 -0.000108 -0.000004 20.381000 5.190030 2.967930 -2.192480 -6.469440 -0.000000 -177.760000 -10.676700 3.856780 39.081100 -0.000007 -0.000012 -0.048162 0.079161 31.316800 40.985400 -0.000006 -0.000013 2.733630 4.304020 -70.349000 11.754300 -0.000000 0.000003 -0.000075 -0.000804 -16.608600 -2.192510 6.469440 -0.000001 169.793000 17.193500 -174.659000 -39.081100 -0.002282 -0.040193 -0.178557 0.304204 30.871700 -40.985400 0.000008 0.000006 -0.480523 9.661620 -69.634600 -11.754300 -0.000006 -0.000006 -0.005010 -0.061563 -19.078000
0.000000 0.000000 0.000000 0.000000 0.000000 -0.000000 2.934160 90.632300 -0.888973 90.495900 -1.019300 15.445600 15.735700 0.000005 -0.000001 89.546600 83.436100 -90.567900 8.984550 -0.406207 -0.000000 5.361490 -0.082238 -2.036370 16.377300 -0.000001 -0.000001 36.186000 -5.915760 2.948190 6.456720 -0.000001 -0.000000 19.308900 -9.627540 -4.415560 12.994200 -0.242716 4.980390 -86.446400 -7.628760 -64.929900 5.348090 -0.000007 -0.000001 -62.781900 -57.592500 -66.079700 24.328600 0.000019 0.000005 5.133850 9.715600 -28.029700 22.291600 -0.000001 0.000005 21.994600 4.852060 10.320800 12.994500 -0.242716 -4.980390 91.994800 -5.890460 -71.253100 -5.348130 -0.000001 -0.000004 -39.767300 -55.167300 -49.141000 -24.328900 0.000322 -0.000009 -0.796783 -1.662150 -25.586200 -22.291500 -0.000108 -0.000004 20.350800 5.200920 2.695990 -2.192480 -6.469440 -0.000000 -177.891000 -10.572200 4.151440 39.081100 -0.000007 -0.000012 -0.043862 0.071887 31.390100 40.985400 -0.000006 -0.000013 2.841620 4.378070 -70.427600 11.754300 -0.000000 0.000003 -0.000078 -0.000832 -16.609600 -2.192510 6.469440 -0.000001 169.504000 17.171100 -174.317000 -39.081100 -0.002282 -0.040193 -0.181651 0.307877 30.994800 -40.985400 0.000008 0.000006 -0.603967 9.525600 -69.736800 -11.754300 -0.000006 -0.000006 -0.005044 -0.061892 -19.091400
0.000000 0.000000 0.000000 0.000000 0.000000 -0.000000 3.032260 90.597500 -0.865618 90.553800 -0.899838 15.657000 15.735700 0.000005 -0.000001 89.467000 83.575700 -90.505000 8.984550 -0.406207 -0.000000 5.082090 -0.094976 -2.069350 16.377300 -0.000001 -0.000001 35.891100 -5.833210 2.898350 6.456720 -0.000001 -0.000000 19.433900 -9.496100 -4.529410 12.994200 -0.242716 4.980390 -86.412500 -7.826620 -65.278300 5.348090 -0.000007 -0.000001 -61.229400 -54.860700 -67.669500 24.328600 0.000019 0.000005 5.091040 9.353850 -28.728700 22.291600 -0.000001 0.000005 21.777500 4.879610 9.781910 12.994500 -0.242716 -4.980390 92.035600 -6.081990 -71.454900 -5.348130 -0.000001 -0.000004 -39.881500 -53.643900 -51.641000 -24.328900 0.000322 -0.000009 -0.821895 -1.641230 -26.575000 -22.291500 -0.000108 -0.000004 20.270100 5.214390 2.355740 -2.192480 -6.469440 -0.000000 -177.985000 -10.537800 4.325720 39.081100 -0.000007 -0.000012 -0.044106 0.071956 31.506900 40.985400 -0.000006 -0.000013 2.927940 4.409200 -70.518600 11.754300 -0.000000 0.000003 -0.000070 -0.000757 -16.606800 -2.192510 6.469440 -0.000001 169.336000 17.037100 -174.154000 -39.081100 -0.002282 -0.040193 -0.180213 0.303566 31.154100 -40.985400 0.000008 0.000006 -0.717204 9.371320 -69.823500 -11.754300 -0.000006 -0.000006 -0.004862 -0.060120 -19.019100
